<svg width="29" height="32" viewBox="0 0 29 32" fill="none" xmlns="http://www.w3.org/2000/svg">
<path d="M14.2022 6.97107L3.21417 13.5171C3.06645 13.6029 2.94879 13.7322 2.87722 13.8874C2.80564 14.0425 2.78362 14.216 2.81417 14.3841L5.72817 31.2991C5.76227 31.4948 5.86427 31.6723 6.01624 31.8003C6.16822 31.9284 6.36046 31.9987 6.55917 31.9991H10.2802C10.3912 31.9995 10.5013 31.9779 10.604 31.9356C10.7067 31.8932 10.8 31.831 10.8786 31.7525C10.9571 31.6739 11.0193 31.5806 11.0617 31.4779C11.104 31.3752 11.1256 31.2651 11.1252 31.1541V24.7101C11.1252 23.6906 11.5302 22.7128 12.251 21.9919C12.9719 21.2711 13.9497 20.8661 14.9692 20.8661C15.9887 20.8661 16.9664 21.2711 17.6873 21.9919C18.4082 22.7128 18.8132 23.6906 18.8132 24.7101H18.8202V31.1511C18.8198 31.2621 18.8414 31.3722 18.8837 31.4749C18.926 31.5776 18.9882 31.6709 19.0668 31.7495C19.1453 31.828 19.2386 31.8902 19.3413 31.9326C19.444 31.9749 19.5541 31.9965 19.6652 31.9961H23.3142C23.5144 31.9966 23.7082 31.9256 23.8606 31.7957C24.013 31.6659 24.1139 31.4858 24.1452 31.2881L26.9272 14.3881C26.9544 14.2178 26.9296 14.0434 26.8561 13.8875C26.7826 13.7315 26.6638 13.6014 26.5152 13.5141L15.0562 6.96407C14.9263 6.88857 14.7785 6.84938 14.6282 6.85061C14.478 6.85185 14.3308 6.89345 14.2022 6.97107Z" fill="#9D9FA8"/>
<path d="M2 9.5L14.558 2L27.722 9.847" stroke="#9D9FA8" stroke-width="2.5" stroke-linecap="round" stroke-linejoin="round"/>
</svg>
